<svg xmlns:xlink="http://www.w3.org/1999/xlink" xmlns="http://www.w3.org/2000/svg" viewBox="0 0 20 20" width="20"  height="20" ><path fill="url(&quot;#fire-on_svg__a&quot;)" d="M14.982 9.296c-.203-.264-.45-.493-.678-.722-.59-.528-1.258-.906-1.822-1.46-.996-.977-1.403-2.436-1.174-3.795.085-.507-.355-1.003-.802-.75-.352.197-.678.43-.98.672-2.28 1.83-3.177 5.06-2.104 7.832.035.088.07.176.07.29 0 .194-.131.37-.307.44-.203.089-.414.036-.581-.105a.5.5 0 0 1-.123-.15 4.2 4.2 0 0 1-.839-1.965c-.095-.63-.942-1.067-1.21-.49a6.5 6.5 0 0 0-.592 3.08c.053.44.106.88.256 1.32.123.529.36 1.057.624 1.523.95 1.522 2.597 2.614 4.365 2.834 1.884.237 3.899-.106 5.342-1.408 1.61-1.461 2.174-3.802 1.347-5.809l-.115-.228c-.184-.405-.677-1.11-.677-1.11M12.2 14.84c-.247.211-.651.44-.968.528-.715.255-1.43.066-1.99-.278-.267-.164-.168-.547.107-.699a2.4 2.4 0 0 0 1.188-1.549c.15-.704-.133-1.285-.247-1.962a4 4 0 0 1-.053-.94c.027-.345.448-.375.645-.09q.055.078.112.15c.678.88 1.743 1.267 1.971 2.464.036.123.053.246.053.378.027.722-.29 1.514-.818 1.998"></path><defs><radialGradient id="fire-on_svg__a" cx="0" cy="0" r="1" gradientTransform="rotate(-115.942 13.225 6.684)scale(20.573 28.2969)" gradientUnits="userSpaceOnUse"><stop stop-color="#F58540"></stop><stop offset="0.542" stop-color="#F99F3E"></stop><stop offset="1" stop-color="#FEC23B"></stop></radialGradient><radialGradient id="fire-on_svg__a" cx="0" cy="0" r="1" gradientTransform="rotate(-115.942 13.225 6.684)scale(20.573 28.2969)" gradientUnits="userSpaceOnUse"><stop stop-color="#F58540"></stop><stop offset="0.542" stop-color="#F99F3E"></stop><stop offset="1" stop-color="#FEC23B"></stop></radialGradient></defs></svg>