<svg xmlns:xlink="http://www.w3.org/1999/xlink" xmlns="http://www.w3.org/2000/svg" viewBox="0 0 13 13" width="16"  height="16" ><g fill-rule="evenodd" clip-rule="evenodd" fill-opacity="0.5" fill="#FFFFFF"><path d="m6.4 12.9.8-.4a31 31 0 0 0 4.4-2.7l.1-.2a3.5 3.5 0 0 0 0-1.7l-.8-1.6v.2c0 .2-.1.3-.3.4l-.2.3c-.2 0-.3.2-.5.3a34 34 0 0 1-4.7 2.7c.1.1.7.5 1 1.2.4.7.3 1.3.2 1.5M4 11.4l-1.1 1.3.1.3h1.7c0-.1.2-1-.7-1.6" fill="#FFFFFF" fill-opacity="0.5"></path><path d="M12 8.7h-.1v-.5a4 4 0 0 0-.9-1.8l-.6-.6a37.6 37.6 0 0 0-6.7-3.5l-.2.1C3.6 1.7 4 1 4.7.6c.3-.3.6-.5 1-.6h.4l.4.2 1 .4a33 33 0 0 1 4 2.5l.2.3V4a22 22 0 0 1 .2 3.9v.7Z" fill="#FFFFFF" fill-opacity="0.5"></path><path d="M2.9 9.2 3 9a131 131 0 0 1 0-5.8l.1-.4c0-.4.2-.7.4-1 .3-.6.7-1.1 1.3-1.5h-.2A33 33 0 0 0 .4 3.2l-.2.3v.3l-.1.7-.1 1v3.6c0 .1.2.2.3 0l1.2-1.3c0-.1.1-.1.2 0z" fill="#FFFFFF" fill-opacity="0.5"></path></g></svg>